<svg width="51" height="51" viewBox="0 0 51 51" fill="none" xmlns="http://www.w3.org/2000/svg">
<circle cx="25.5" cy="25.5" r="24" stroke="white" stroke-width="3"/>
<path fill-rule="evenodd" clip-rule="evenodd" d="M26.7762 14.2127C26.5315 14.0762 26.2155 13.9837 25.7081 13.9843C25.1998 13.9848 24.8831 14.0774 24.6381 14.2139C24.3845 14.3552 24.1472 14.5762 23.8415 14.9408C22.3752 16.9938 20.2501 20.8009 18.418 24.4305C17.5017 26.2457 16.666 28.002 16.0306 29.4522C15.3827 30.9306 14.9761 32.0181 14.8729 32.5342C14.6493 33.6525 15.0777 34.8686 15.9566 35.795C16.8317 36.7174 18.0827 37.2747 19.3815 37.1448C20.6119 37.0218 21.9328 36.2051 23.0544 35.2631C23.7424 34.6853 24.3103 34.0992 24.6792 33.6924C21.9509 30.5995 18.7152 23.0511 25.0808 22.2203C25.4986 22.1658 25.9161 22.1658 26.3338 22.2203C32.6995 23.0511 29.4638 30.5995 26.7355 33.6924C27.1043 34.0992 27.6722 34.6853 28.3602 35.2631C29.4819 36.2051 30.8028 37.0218 32.0332 37.1448C33.3319 37.2747 34.583 36.7174 35.4581 35.795C36.337 34.8686 36.7654 33.6525 36.5417 32.5342C36.4037 31.8442 35.8743 30.5033 35.0822 28.7797C34.3038 27.0857 33.3087 25.0998 32.2913 23.16C31.2742 21.2208 30.2385 19.3349 29.3802 17.8422C28.5042 16.3188 27.853 15.2764 27.5911 14.9622C27.2763 14.5844 27.0347 14.3569 26.7762 14.2127ZM25.7073 34.8578C26.1104 35.2942 26.6834 35.8728 27.3664 36.4464C28.543 37.4345 30.1659 38.5111 31.8794 38.6825C33.7236 38.8669 35.427 38.0731 36.5791 36.8585C37.7275 35.6481 38.3991 33.9415 38.057 32.2311C37.8777 31.3347 37.2663 29.8317 36.4864 28.1344C35.6928 26.4076 34.6845 24.396 33.6598 22.4422C32.6346 20.4877 31.5893 18.584 30.7198 17.0719C29.8681 15.5906 29.145 14.413 28.7782 13.9729C28.4239 13.5476 28.0368 13.1465 27.529 12.8632C27.0074 12.5722 26.4193 12.4382 25.7065 12.439C24.9948 12.4397 24.4074 12.5735 23.8861 12.8639C23.3783 13.1468 22.9912 13.5472 22.6364 13.9729L22.6184 13.9946L22.6019 14.0176C21.0612 16.1681 18.8826 20.0808 17.0385 23.7341C16.1132 25.5672 15.2647 27.3497 14.6152 28.832C13.9781 30.2859 13.499 31.5244 13.3577 32.2311C13.0156 33.9415 13.6872 35.6481 14.8355 36.8585C15.9877 38.0731 17.6911 38.8669 19.5353 38.6825C21.2487 38.5111 22.8717 37.4345 24.0482 36.4464C24.7312 35.8728 25.3042 35.2942 25.7073 34.8578ZM25.7073 32.5195C27.5344 30.4207 30.9946 24.387 26.1339 23.7526C25.8497 23.7155 25.5652 23.7155 25.2808 23.7526C20.42 24.387 23.8803 30.4207 25.7073 32.5195Z" fill="white"/>
</svg>
