<svg width="51" height="51" viewBox="0 0 51 51" fill="none" xmlns="http://www.w3.org/2000/svg">
<circle cx="25.5" cy="25.5" r="24" stroke="white" stroke-width="3"/>
<path fill-rule="evenodd" clip-rule="evenodd" d="M25.7024 15.5093C29.0244 15.5093 29.4144 15.5241 30.7274 15.5833C31.9416 15.6376 32.5981 15.84 33.0375 16.0128C33.6199 16.2399 34.0346 16.5064 34.4689 16.9408C34.9033 17.3752 35.1748 17.7898 35.3969 18.3723C35.5648 18.8116 35.7721 19.4681 35.8264 20.6824C35.8856 21.9954 35.9004 22.3853 35.9004 25.7073C35.9004 29.0293 35.8856 29.4193 35.8264 30.7323C35.7721 31.9466 35.5697 32.6031 35.3969 33.0424C35.1699 33.6248 34.9033 34.0395 34.4689 34.4739C34.0346 34.9082 33.6199 35.1797 33.0375 35.4018C32.5981 35.5697 31.9416 35.777 30.7274 35.8313C29.4144 35.8905 29.0244 35.9053 25.7024 35.9053C22.3804 35.9053 21.9904 35.8905 20.6774 35.8313C19.4631 35.777 18.8066 35.5746 18.3673 35.4018C17.7849 35.1748 17.3702 34.9082 16.9358 34.4739C16.5015 34.0395 16.23 33.6248 16.0079 33.0424C15.84 32.6031 15.6327 31.9466 15.5784 30.7323C15.5192 29.4193 15.5044 29.0293 15.5044 25.7073C15.5044 22.3853 15.5192 21.9954 15.5784 20.6824C15.6327 19.4681 15.8351 18.8116 16.0079 18.3723C16.2349 17.7898 16.5015 17.3752 16.9358 16.9408C17.3702 16.5064 17.7849 16.2349 18.3673 16.0128C18.8066 15.845 19.4631 15.6376 20.6774 15.5833C21.9904 15.5192 22.3853 15.5093 25.7024 15.5093ZM25.7024 13.2683C22.3261 13.2683 21.9016 13.2831 20.5738 13.3424C19.2509 13.4016 18.3476 13.6138 17.5578 13.9199C16.7384 14.2358 16.0473 14.6652 15.3563 15.3563C14.6652 16.0473 14.2407 16.7433 13.9199 17.5578C13.6138 18.3476 13.4016 19.2509 13.3424 20.5787C13.2831 21.9016 13.2683 22.3261 13.2683 25.7024C13.2683 29.0787 13.2831 29.5032 13.3424 30.831C13.4016 32.1539 13.6138 33.0572 13.9199 33.8519C14.2358 34.6713 14.6652 35.3624 15.3563 36.0534C16.0473 36.7445 16.7433 37.169 17.5578 37.4898C18.3476 37.7959 19.2509 38.0081 20.5787 38.0673C21.9065 38.1266 22.3261 38.1414 25.7073 38.1414C29.0886 38.1414 29.5081 38.1266 30.836 38.0673C32.1588 38.0081 33.0621 37.7959 33.8569 37.4898C34.6763 37.1739 35.3673 36.7445 36.0584 36.0534C36.7494 35.3624 37.1739 34.6664 37.4948 33.8519C37.8008 33.0621 38.0131 32.1588 38.0723 30.831C38.1315 29.5032 38.1463 29.0836 38.1463 25.7024C38.1463 22.3211 38.1315 21.9016 38.0723 20.5738C38.0131 19.2509 37.8008 18.3476 37.4948 17.5529C37.1789 16.7335 36.7494 16.0424 36.0584 15.3514C35.3673 14.6603 34.6713 14.2358 33.8569 13.9149C33.0671 13.6089 32.1638 13.3966 30.836 13.3374C29.5032 13.2831 29.0787 13.2683 25.7024 13.2683ZM25.7024 19.32C22.178 19.32 19.3151 22.178 19.3151 25.7073C19.3151 29.2366 22.1731 32.0946 25.7024 32.0946C29.2317 32.0946 32.0897 29.2366 32.0897 25.7073C32.0897 22.178 29.2317 19.32 25.7024 19.32ZM25.7024 29.8487C23.412 29.8487 21.5561 27.9927 21.5561 25.7024C21.5561 23.412 23.412 21.556 25.7024 21.556C27.9927 21.556 29.8487 23.412 29.8487 25.7024C29.8487 27.9927 27.9927 29.8487 25.7024 29.8487ZM33.8322 19.0633C33.8322 19.8866 33.1648 20.554 32.3415 20.554C31.5182 20.554 30.8508 19.8866 30.8508 19.0633C30.8508 18.24 31.5182 17.5726 32.3415 17.5726C33.1648 17.5726 33.8322 18.24 33.8322 19.0633Z" fill="white"/>
</svg>
