<svg width="51" height="51" viewBox="0 0 51 51" fill="none" xmlns="http://www.w3.org/2000/svg">
<path d="M12.0244 38.1463L13.9293 31.2292C12.7516 29.1988 12.1338 26.8995 12.1403 24.549C12.1403 17.1835 18.1637 11.1951 25.5579 11.1951C29.1488 11.1951 32.521 12.5849 35.0501 15.1084C37.5856 17.6319 38.982 20.9879 38.9756 24.5554C38.9756 31.9209 32.9521 37.9093 25.5515 37.9093H25.5451C23.2991 37.9093 21.0918 37.3457 19.129 36.2825L12.0244 38.1463ZM19.4701 33.8679L19.8755 34.1113C21.5873 35.1232 23.5501 35.6548 25.5515 35.6612H25.5579C31.7037 35.6612 36.7104 30.6847 36.7104 24.5618C36.7104 21.5964 35.552 18.8103 33.4477 16.7096C31.3433 14.6088 28.5375 13.4559 25.5579 13.4559C19.4122 13.4495 14.4055 18.426 14.4055 24.549C14.4055 26.6433 14.9911 28.6865 16.1109 30.4542L16.3747 30.8769L15.2485 34.9695L19.4701 33.8679Z" fill="white"/>
<path d="M12.0244 38.1463L13.9293 31.2292C12.7516 29.1988 12.1338 26.8995 12.1403 24.549C12.1403 17.1835 18.1637 11.1951 25.5579 11.1951C29.1488 11.1951 32.521 12.5849 35.0501 15.1084C37.5856 17.6319 38.982 20.9879 38.9756 24.5554C38.9756 31.9209 32.9521 37.9093 25.5515 37.9093H25.5451C23.2991 37.9093 21.0918 37.3457 19.129 36.2825L12.0244 38.1463ZM19.4701 33.8679L19.8755 34.1113C21.5873 35.1232 23.5501 35.6548 25.5515 35.6612H25.5579C31.7037 35.6612 36.7104 30.6847 36.7104 24.5618C36.7104 21.5964 35.552 18.8103 33.4477 16.7096C31.3433 14.6088 28.5375 13.4559 25.5579 13.4559C19.4122 13.4495 14.4055 18.426 14.4055 24.549C14.4055 26.6433 14.9911 28.6865 16.1109 30.4542L16.3747 30.8769L15.2485 34.9695L19.4701 33.8679Z" fill="url(#paint0_linear_351_271)"/>
<path fill-rule="evenodd" clip-rule="evenodd" d="M22.2051 18.9642C21.9542 18.407 21.6903 18.3942 21.4522 18.3878C21.2591 18.3813 21.0339 18.3813 20.8087 18.3813C20.5834 18.3813 20.223 18.4646 19.9142 18.7977C19.6053 19.1307 18.7429 19.9377 18.7429 21.5837C18.7429 23.2233 19.9463 24.8117 20.1136 25.0359C20.281 25.2601 22.4368 28.7378 25.8411 30.0764C28.6726 31.1909 29.2518 30.9667 29.8632 30.9091C30.4745 30.8514 31.8453 30.1021 32.1284 29.3207C32.4051 28.5393 32.4051 27.8732 32.3215 27.7323C32.2378 27.5914 32.0126 27.5081 31.6779 27.3416C31.3433 27.1751 29.6959 26.3681 29.387 26.2528C29.0781 26.1439 28.8528 26.0863 28.634 26.4193C28.4088 26.7524 27.7653 27.5017 27.5722 27.7259C27.3791 27.9501 27.1796 27.9757 26.845 27.8092C26.5104 27.6426 25.4292 27.2904 24.1486 26.1503C23.1511 25.2665 22.4754 24.1712 22.2824 23.8382C22.0893 23.5052 22.263 23.3258 22.4304 23.1593C22.5784 23.012 22.765 22.7686 22.9323 22.5765C23.0996 22.3843 23.1576 22.2434 23.267 22.0193C23.3764 21.7951 23.3249 21.6029 23.2412 21.4364C23.1576 21.2763 22.5012 19.6239 22.2051 18.9642Z" fill="white"/>
<circle cx="25.5" cy="25.5" r="24" stroke="white" stroke-width="3"/>
<defs>
<linearGradient id="paint0_linear_351_271" x1="25.5026" y1="38.1437" x2="25.5026" y2="11.1951" gradientUnits="userSpaceOnUse">
<stop stop-color="#F9F9F9"/>
<stop offset="1" stop-color="white"/>
</linearGradient>
</defs>
</svg>
